<?xml version="1.0" encoding="UTF-8"?>
<!DOCTYPE svg PUBLIC "-//W3C//DTD SVG 1.1//EN" "http://www.w3.org/Graphics/SVG/1.1/DTD/svg11.dtd">
<!-- Creator: CorelDRAW -->
<svg xmlns="http://www.w3.org/2000/svg" xml:space="preserve" width="499px" height="228px" style="shape-rendering:geometricPrecision; text-rendering:geometricPrecision; image-rendering:optimizeQuality; fill-rule:evenodd; clip-rule:evenodd"
viewBox="0 0 801.039 365.636"
 xmlns:xlink="http://www.w3.org/1999/xlink">
 <defs>
  <style type="text/css">
   <![CDATA[
    .fil0 {fill:#5F362B}
   ]]>
  </style>
 </defs>
 <g id="Layer_x0020_1">
  <metadata id="CorelCorpID_0Corel-Layer"/>
  <g id="_206447864">
   <path id="_206448512" class="fil0" d="M42.0168 139.396c29.023,-42.2141 79.1225,-77.1376 141.728,-101.444 130.376,-50.603 304.895,-50.603 435.267,0 62.6121,24.306 112.71,59.2295 141.733,101.444 -0.757849,2.67494 -4.71695,-0.885808 -10.21,-6.35222 -48.3675,-48.1482 -129.975,-81.1493 -195.178,-97.63 -86.2151,-21.7872 -221.742,-21.7872 -307.955,0 -65.204,16.4807 -146.814,49.4818 -195.178,97.63 -5.49307,5.46566 -9.45217,9.02717 -10.207,6.35222z"/>
   <path id="_206448488" class="fil0" d="M111.645 330.326c0,-1.80056 -1.46162,-3.26523 -3.26446,-3.26523 -1.80056,0 -3.26218,1.46467 -3.26218,3.26523l0 32.0467c0,1.80284 1.46162,3.2637 3.26218,3.2637 1.80284,0 3.26446,-1.46086 3.26446,-3.2637l0 -32.0467z"/>
   <path id="_206448392" class="fil0" d="M93.019 326.763c-1.79447,0.0418912 -3.21648,1.53246 -3.17383,3.32692 0.0396062,1.79447 1.53322,3.21648 3.32844,3.17383 0.246777,-0.00304663 0.386922,1.40145 0.552202,3.11899 0.591808,6.16257 1.35575,13.9909 14.4517,14.834 1.79447,0.111202 3.34215,-1.25369 3.45259,-3.04815 0.111202,-1.79523 -1.25293,-3.3452 -3.04815,-3.45336 -7.55869,-0.486699 -8.02254,-5.21812 -8.38128,-8.94491 -0.484414,-5.03913 -0.891139,-9.15817 -7.18167,-9.00736z"/>
   <path id="_206448704" class="fil0" d="M123.59 333.263c1.79142,0.0426528 3.28503,-1.37936 3.32616,-3.17383 0.0411295,-1.79447 -1.38089,-3.28503 -3.17307,-3.32692 -6.29282,-0.150808 -6.69649,3.96824 -7.18472,9.00736 -0.358741,3.72679 -0.820305,8.45821 -8.38052,8.94491 -1.79523,0.108155 -3.15936,1.65813 -3.04815,3.45336 0.11044,1.79447 1.66194,3.15936 3.45259,3.04815 13.0959,-0.843155 13.8599,-8.67147 14.4547,-14.834 0.162995,-1.71754 0.303901,-3.12203 0.552963,-3.11899z"/>
   <path id="_206448752" class="fil0" d="M691.24 330.326c0,-1.80056 -1.46467,-3.26523 -3.26446,-3.26523 -1.80132,0 -3.26599,1.46467 -3.26599,3.26523l0 32.0467c0,1.80284 1.46391,3.2637 3.26599,3.2637 1.80056,0 3.26446,-1.46086 3.26446,-3.2637l0 -32.0467z"/>
   <path id="_206448680" class="fil0" d="M672.615 326.763c-1.79523,0.0418912 -3.21953,1.53246 -3.17307,3.32692 0.0388445,1.79447 1.53169,3.21648 3.32616,3.17383 0.244492,-0.00304663 0.387684,1.40145 0.552202,3.11899 0.593331,6.16257 1.35727,13.9909 14.4502,14.834 1.79447,0.111202 3.34444,-1.25369 3.45183,-3.04815 0.11501,-1.79523 -1.25369,-3.3452 -3.04815,-3.45336 -7.55412,-0.486699 -8.02178,-5.21812 -8.38052,-8.94491 -0.483653,-5.03913 -0.888854,-9.15817 -7.17862,-9.00736z"/>
   <path id="_206448872" class="fil0" d="M703.182 333.263c1.79447,0.0426528 3.28808,-1.37936 3.32692,-3.17383 0.0396062,-1.79447 -1.37784,-3.28503 -3.17307,-3.32692 -6.29053,-0.150808 -6.69497,3.96824 -7.18548,9.00736 -0.352647,3.72679 -0.820305,8.45821 -8.38052,8.94491 -1.79523,0.108155 -3.15707,1.65813 -3.04815,3.45336 0.113487,1.79447 1.66346,3.15936 3.45183,3.04815 13.0997,-0.843155 13.8614,-8.67147 14.4547,-14.834 0.166803,-1.71754 0.30771,-3.12203 0.553725,-3.11899z"/>
   <path id="_206448944" class="fil0" d="M35.0317 231.785c9.97315,2.65209 18.5197,6.29282 25.6107,10.5657 10.7257,6.46495 18.2866,14.4639 22.6761,22.8657 4.58975,8.77963 5.73757,17.9896 3.48687,26.4394 -0.799741,3.00245 -2.02753,5.90285 -3.67195,8.63491l-0.384637 0.552202c-2.46092,3.15936 -3.3551,5.98282 -3.1624,8.30131 0.0891139,1.04347 0.405202,2.01078 0.897994,2.86688 0.526305,0.923129 1.2476,1.73125 2.08999,2.38627 2.00316,1.57054 4.7238,2.39084 7.47872,2.16006l0.447093 0 621.919 -0.162995 0.449378 0c2.75872,0.231544 5.46337,-0.57886 7.44673,-2.12198 0.814974,-0.635222 1.51418,-1.4243 2.02677,-2.31544 0.467658,-0.824114 0.781461,-1.76476 0.862196,-2.77853 0.191938,-2.31544 -0.706057,-5.14728 -3.19592,-8.33558l-0.382352 -0.552202c-1.6467,-2.73207 -2.87069,-5.63246 -3.6689,-8.63491 -2.25603,-8.44983 -1.10593,-17.6598 3.48687,-26.4394 4.38715,-8.40185 11.9474,-16.4008 22.6753,-22.8657 7.08875,-4.2729 15.63,-7.90753 25.6107,-10.5657l2.75796 10.4949c-8.89235,2.36799 -16.4823,5.59514 -22.7606,9.37829 -8.97614,5.40701 -15.1974,11.8948 -18.6842,18.5738 -3.29798,6.3111 -4.15332,12.8065 -2.59268,18.6629 0.506502,1.93156 1.30015,3.80676 2.34286,5.58904 4.16931,5.47403 5.64617,10.8292 5.24706,15.5866 -0.221642,2.66352 -1.02595,5.11758 -2.26745,7.28373 -1.20799,2.10598 -2.85469,3.94843 -4.79083,5.46185 -4.09162,3.19363 -9.54433,4.86852 -15.0085,4.41228l-621.026 0.162995c-5.46413,0.45928 -10.9336,-1.23617 -15.0435,-4.4496 -1.96279,-1.53322 -3.63006,-3.40232 -4.85252,-5.53344 -1.25902,-2.19586 -2.07704,-4.67734 -2.29792,-7.36904 -0.399109,-4.75731 1.06251,-10.0988 5.20669,-15.5424 1.05109,-1.79066 1.83788,-3.67043 2.35048,-5.60199 1.55911,-5.85334 0.703772,-12.3518 -2.59421,-18.6629 -3.48763,-6.67898 -9.70656,-13.1668 -18.6804,-18.5738 -6.28139,-3.78315 -13.8736,-7.0103 -22.7652,-9.37829l2.76101 -10.4949z"/>
   <path id="_206449016" class="fil0" d="M39.3213 233.729c-3.30712,-2.058 -6.75971,-2.37104 -9.51387,-3.39623 -11.6099,-4.34145 -16.6803,-15.9537 -16.6719,-29.7184 0.0114249,-17.7024 8.6113,-32.1953 27.7815,-32.1953 5.79774,0.0350363 9.11628,1.1204 11.1164,1.90871 2.98874,1.17752 5.65988,-0.281813 6.6546,-2.87678 1.70687,-4.48159 -0.572767,-6.64013 -4.47855,-7.76891 -4.41304,-1.27882 -9.89393,-1.70611 -13.7251,-1.70992 -25.8133,-0.0137098 -40.4044,18.3834 -40.4844,43.2881 0.053316,19.6051 8.70575,34.2594 24.7645,39.4196 4.59203,1.47609 10.5459,1.75486 18.8754,5.18765 -1.72287,-3.24238 -5.43747,-8.58693 -4.3186,-12.1385z"/>
   <path id="_206449088" class="fil0" d="M761.524 234.693c-0.0609326,-0.366357 0.11501,-0.738046 0.440238,-0.920082 3.15479,-1.76248 6.39564,-2.09684 9.01117,-3.06567 11.7112,-4.35668 16.8243,-16.007 16.8128,-29.8174 -0.00380829,-17.7611 -8.6829,-32.3019 -28.0115,-32.3019 -3.97204,0.0236114 -8.22286,0.524782 -11.9984,1.95594 -8.28607,3.14031 -23.7645,13.7822 -29.1601,22.9609 -0.363311,0.618466 -1.25597,0.609326 -1.601,-0.0198031 -1.20037,-2.19281 -1.86682,-5.33237 1.09298,-9.27851 5.29352,-7.05447 15.8478,-16.5729 28.1273,-22.4887 4.99419,-2.40684 12.6367,-3.61026 13.9688,-3.61026 26.0365,-0.00837823 40.7525,18.4443 40.8332,43.4305 -0.0586476,19.6706 -8.77887,34.3736 -24.9732,39.5498 -4.1815,1.33671 -9.48568,1.69545 -16.6658,4.28889 -0.806595,0.290953 -1.54693,-0.562865 -1.11964,-1.30396 1.68936,-2.93543 3.7108,-6.59748 3.24314,-9.37981z"/>
   <path id="_206449160" class="fil0" d="M111.809 165.085l0 65.1271c0,1.65813 -1.36565,3.02302 -3.02226,3.02302l-0.292477 0c-1.65737,0 -3.02378,-1.36489 -3.02378,-3.02302 0,0 0,-51.4774 0,-54.1097 0,-2.53556 -0.681684,-2.53556 -1.75334,-1.17067 -4.97286,6.14277 -18.6225,23.2047 -19.305,23.7896 -0.87743,0.682445 -1.36489,0.87743 -2.24232,0.87743 -0.87743,0 -1.75486,-0.389969 -2.24232,-0.87743 -0.292477,-0.389969 -14.0389,-17.2569 -19.2067,-23.5939 -1.16991,-1.46238 -1.85235,-1.16991 -1.85235,0.974922 0,2.24232 0,54.1097 0,54.1097 0,1.65813 -1.36489,3.02302 -3.02226,3.02302l-0.292477 0c-1.65737,0 -3.02226,-1.36489 -3.02226,-3.02302l0 -65.1271c0,-1.65661 1.36489,-3.0215 3.02226,-3.0215 1.46238,0 2.04734,0.584953 2.4373,0.87743 0,0 20.8641,25.153 22.229,26.8111 2.14483,2.5348 2.04734,2.14483 4.28966,-0.487461 1.55987,-1.85311 21.8382,-26.3236 21.8382,-26.3236 0.39073,-0.292477 1.07394,-0.87743 2.43883,-0.87743 1.65737,0 3.0215,1.36489 3.02226,3.0215z"/>
   <path id="_206449256" class="fil0" d="M111.809 165.085l0 65.1271c0,1.65813 -1.36565,3.02302 -3.02226,3.02302l-0.292477 0c-1.65737,0 -3.02378,-1.36489 -3.02378,-3.02302 0,0 0,-51.4774 0,-54.1097 0,-2.53556 -0.681684,-2.53556 -1.75334,-1.17067 -4.97286,6.14277 -18.6225,23.2047 -19.305,23.7896 -0.87743,0.682445 -1.36489,0.87743 -2.24232,0.87743 -0.87743,0 -1.75486,-0.389969 -2.24232,-0.87743 -0.292477,-0.389969 -14.0389,-17.2569 -19.2067,-23.5939 -1.16991,-1.46238 -1.85235,-1.16991 -1.85235,0.974922 0,2.24232 0,54.1097 0,54.1097 0,1.65813 -1.36489,3.02302 -3.02226,3.02302l-0.292477 0c-1.65737,0 -3.02226,-1.36489 -3.02226,-3.02302l0 -65.1271c0,-1.65661 1.36489,-3.0215 3.02226,-3.0215 1.46238,0 2.04734,0.584953 2.4373,0.87743 0,0 20.8641,25.153 22.229,26.8111 2.14483,2.5348 2.04734,2.14483 4.28966,-0.487461 1.55987,-1.85311 21.8382,-26.3236 21.8382,-26.3236 0.39073,-0.292477 1.07394,-0.87743 2.43883,-0.87743 1.65737,0 3.02226,1.36489 3.02226,3.0215z"/>
   <path id="_206449376" class="fil0" d="M160.65 229.921l0 0.291715c0,1.65813 -1.36489,3.02302 -3.02378,3.02302l-35.0979 0c-1.65737,0 -2.92477,-1.36489 -2.92477,-3.02302l0 -65.1271c0,-1.65661 1.2674,-3.0215 2.92477,-3.0215l33.2464 0c1.65813,0 3.02226,1.36489 3.02226,3.0215l0.000761658 0.194984c0,1.65737 -1.36565,3.02226 -3.02302,3.02226l-28.6635 0c-0.975683,0 -1.2674,0.292477 -1.2674,1.07241l0 23.0097c0,0.974922 0.195746,1.2674 1.07241,1.2674l25.1545 0c1.65661,0 3.0215,1.36489 3.0215,3.02226l0 0.194984c0,1.65737 -1.36489,3.02226 -3.0215,3.02226l-24.9595 0c-0.975683,0 -1.2674,0.194984 -1.2674,1.07241l0 24.7638c0,0.87743 0.195746,1.16991 1.07241,1.16991l30.71 0c1.65889,0 3.02302,1.36489 3.02378,3.02302z"/>
   <path id="_206449448" class="fil0" d="M160.65 229.921l0 0.291715c0,1.65813 -1.36489,3.02302 -3.02378,3.02302l-35.0979 0c-1.65737,0 -2.92477,-1.36489 -2.92477,-3.02302l0 -65.1271c0,-1.65661 1.2674,-3.0215 2.92477,-3.0215l33.2464 0c1.65813,0 3.02226,1.36489 3.02226,3.0215l0.000761658 0.194984c0,1.65737 -1.36565,3.02226 -3.02302,3.02226l-28.6635 0c-0.975683,0 -1.2674,0.292477 -1.2674,1.07241l0 23.0097c0,0.974922 0.195746,1.2674 1.07241,1.2674l25.1545 0c1.65661,0 3.0215,1.36489 3.0215,3.02226l0 0.194984c0,1.65737 -1.36489,3.02226 -3.0215,3.02226l-24.9595 0c-0.975683,0 -1.2674,0.194984 -1.2674,1.07241l0 24.7638c0,0.87743 0.195746,1.16991 1.07241,1.16991l30.71 0c1.65889,0 3.02378,1.36489 3.02378,3.02302z"/>
   <path id="_206449544" class="fil0" d="M205.883 211.006c0,-9.35925 -7.79937,-15.9887 -17.4519,-15.9887l-14.7213 0c-0.878191,0 -1.17067,0.194984 -1.17067,1.07241l0.000761658 29.6384c0,0.87743 0.194984,1.16991 1.07165,1.16991l14.8196 0c9.65249,0 17.4519,-6.53198 17.4519,-15.892zm6.2395 0c0,12.5773 -10.8216,22.2297 -23.2039,22.2297 -0.194984,0 -19.6942,0 -19.6942,0 -1.65737,0 -3.02226,-1.36489 -3.02226,-3.02302l0 -65.1271c0,-1.65661 1.36489,-3.0215 3.02226,-3.0215l31.1983 0c1.75562,0 3.12051,1.36489 3.12051,3.0215l0 0.194984c0,1.65737 -1.36489,3.02226 -3.02226,3.02226l-26.8111 0c-0.878191,0 -1.17067,0.292477 -1.17067,1.07241l0.000761658 18.1351c0,0.87743 0.194984,1.16991 1.07165,1.16991 0.000761658,0 15.112,0 15.307,0 12.8697,0.194984 23.2039,9.65173 23.2039,22.3257z"/>
   <path id="_206449616" class="fil0" d="M205.883 211.006c0,-9.35925 -7.79937,-15.9887 -17.4519,-15.9887l-14.7213 0c-0.878191,0 -1.17067,0.194984 -1.17067,1.07241l0.000761658 29.6384c0,0.87743 0.194984,1.16991 1.07165,1.16991l14.8196 0c9.65249,0 17.4519,-6.53198 17.4519,-15.892zm6.2395 0c0,12.5773 -10.8216,22.2297 -23.2039,22.2297 -0.194984,0 -19.6942,0 -19.6942,0 -1.65737,0 -3.02226,-1.36489 -3.02226,-3.02302l0 -65.1271c0,-1.65661 1.36489,-3.0215 3.02226,-3.0215l31.1983 0c1.75562,0 3.12051,1.36489 3.12051,3.0215l0 0.194984c0,1.65737 -1.36489,3.02226 -3.02226,3.02226l-26.8111 0c-0.878191,0 -1.17067,0.292477 -1.17067,1.07241l0.000761658 18.1351c0,0.87743 0.194984,1.16991 1.07165,1.16991 0,0 15.112,0 15.307,0 12.8697,0.194984 23.2039,9.65173 23.2039,22.3257z"/>
   <path id="_206449712" class="fil0" d="M259.21 229.921l0 0.291715c0,1.65813 -1.36489,3.02302 -3.02226,3.02302l-35.0987 0c-1.65737,0 -2.92477,-1.36489 -2.92477,-3.02302l0 -65.1271c0,-1.65661 1.2674,-3.0215 2.92477,-3.0215l33.2456 0c1.65813,0 3.02302,1.36489 3.02302,3.0215l0 0.194984c0,1.65737 -1.36489,3.02226 -3.02302,3.02226l-28.6627 0c-0.975683,0 -1.26816,0.292477 -1.26816,1.07241l0 23.0097c0,0.974922 0.194984,1.2674 1.07318,1.2674l25.153 0c1.65737,0 3.02226,1.36489 3.02226,3.02226l0 0.194984c0,1.65737 -1.36489,3.02226 -3.02226,3.02226l-24.958 0c-0.975683,0 -1.26816,0.194984 -1.26816,1.07241l0 24.7638c0,0.87743 0.194984,1.16991 1.07318,1.16991l30.7108 0c1.65737,0 3.02226,1.36489 3.02226,3.02302z"/>
   <path id="_206449784" class="fil0" d="M259.21 229.921l0 0.291715c0,1.65813 -1.36489,3.02302 -3.02226,3.02302l-35.0987 0c-1.65737,0 -2.92477,-1.36489 -2.92477,-3.02302l0 -65.1271c0,-1.65661 1.2674,-3.0215 2.92477,-3.0215l33.2456 0c1.65813,0 3.02302,1.36489 3.02302,3.0215l0 0.194984c0,1.65737 -1.36489,3.02226 -3.02302,3.02226l-28.6627 0c-0.975683,0 -1.26816,0.292477 -1.26816,1.07241l0 23.0097c0,0.974922 0.194984,1.2674 1.07318,1.2674l25.153 0c1.65737,0 3.02226,1.36489 3.02226,3.02226l0 0.194984c0,1.65737 -1.36489,3.02226 -3.02226,3.02226l-24.958 0c-0.975683,0 -1.26816,0.194984 -1.26816,1.07241l0 24.7638c0,0.87743 0.194984,1.16991 1.07318,1.16991l30.7108 0c1.65737,0 3.02226,1.36489 3.02226,3.02302z"/>
   <path id="_206449880" class="fil0" d="M321.505 228.945c0.682445,1.55987 -0.0974922,3.3155 -1.65737,3.99794l-0.194984 0.0974922c-1.55987,0.584953 -3.3155,-0.0974922 -3.89969,-1.65813 0,0 -20.9623,-50.9899 -22.1322,-54.0122 -1.94908,-4.58213 -2.4373,-5.16785 -4.58213,0 -1.46238,3.50972 -22.1315,54.0122 -22.1315,54.0122 -0.584953,1.56064 -2.4373,2.24308 -3.89969,1.65813l-0.292477 -0.0974922c-1.46238,-0.682445 -2.24232,-2.43807 -1.55987,-3.99794l27.2993 -65.0296c0.487461,-1.26664 1.75486,-1.85159 2.82651,-1.85159 1.26816,0 2.4373,0.584953 2.92477,1.85235l27.2993 65.0288z"/>
   <path id="_206449952" class="fil0" d="M321.505 228.945c0.682445,1.55987 -0.0974922,3.3155 -1.65737,3.99794l-0.194984 0.0974922c-1.55987,0.584953 -3.3155,-0.0974922 -3.89969,-1.65813 0,0 -20.9623,-50.9899 -22.1322,-54.0122 -1.94908,-4.58213 -2.4373,-5.16785 -4.58213,0 -1.46238,3.50972 -22.1315,54.0122 -22.1315,54.0122 -0.584953,1.56064 -2.4373,2.24308 -3.89969,1.65813l-0.292477 -0.0974922c-1.46238,-0.682445 -2.24232,-2.43807 -1.55987,-3.99794l27.2993 -65.0296c0.487461,-1.26664 1.75486,-1.85159 2.82651,-1.85159 1.26816,0 2.4373,0.584953 2.92477,1.85235l27.2993 65.0288z"/>
   <path id="_206450048" class="fil0" d="M333.103 195.017c-0.878191,0 -1.07318,0.292477 -1.07318,1.16991l0 29.7359c0,0.779937 0.293238,1.07241 1.17067,1.07241l13.3572 0c10.1384,0 18.3285,-6.04451 18.3285,-16.1837 0,-10.1407 -8.1901,-15.7945 -18.3285,-15.7945l-13.4547 0zm-4.38791 38.2185c-1.65737,0 -3.02226,-1.36489 -3.02226,-3.02302l0 -65.1271c0,-1.65661 1.36489,-3.0215 3.02226,-3.0215l0.292477 0c1.65737,0 3.02226,1.36489 3.02226,3.0215l0 22.5215c0,0.87743 0.293238,1.07318 1.17067,1.07318l13.3572 0c13.5507,0 24.568,8.57931 24.568,22.1315 0,13.5514 -11.0174,22.424 -24.568,22.424l-17.8426 0z"/>
   <path id="_206450120" class="fil0" d="M333.103 195.017c-0.878191,0 -1.07318,0.292477 -1.07318,1.16991l0 29.7359c0,0.779937 0.293238,1.07241 1.17067,1.07241l13.3572 0c10.1384,0 18.3285,-6.04451 18.3285,-16.1837 0,-10.1407 -8.1901,-15.7945 -18.3285,-15.7945l-13.4547 0zm-4.38791 38.2185c-1.65737,0 -3.02226,-1.36489 -3.02226,-3.02302l0 -65.1271c0,-1.65661 1.36489,-3.0215 3.02226,-3.0215l0.292477 0c1.65737,0 3.02226,1.36489 3.02226,3.0215l0 22.5215c0,0.87743 0.293238,1.07318 1.17067,1.07318l13.3572 0c13.5507,0 24.568,8.57931 24.568,22.1315 0,13.5514 -11.0174,22.424 -24.568,22.424l-17.8426 0z"/>
   <path id="_206450216" class="fil0" d="M389.548 178.345c0,4.87461 5.65378,9.45674 6.82521,10.5299 1.2674,1.07241 5.06959,0.0967305 6.62871,-0.487461 6.62947,-2.53556 8.7743,-5.07035 8.7743,-11.9923 0,-6.04528 -4.87461,-9.74922 -11.4058,-9.74922 -6.43448,-0.000761658 -10.8224,6.23874 -10.8224,11.6991zm24.568 42.5081c0.585715,-0.878191 0.389969,-1.36565 -0.389969,-2.33981 -5.55553,-7.0202 -12.089,-15.307 -16.9636,-21.1566 -0.682445,-0.87743 -1.07165,-1.2674 -2.33981,-0.779937 -6.62947,2.14483 -12.674,5.75128 -12.674,15.6962 0,10.6274 7.21442,16.3794 17.9386,16.3794 6.04604,0 11.2124,-2.63229 14.4288,-7.79937zm14.9171 11.5048l-0.194223 0.194984c-1.2674,1.07241 -3.218,0.876668 -4.29042,-0.39073 0,0 -1.75486,-2.33981 -4.87461,-6.2395 -0.389969,-0.487461 -1.07241,-1.07241 -1.75486,-0.0974922 -4.28966,5.65455 -10.8216,8.6768 -18.2318,8.6768 -13.9414,0 -23.9838,-8.28684 -23.9838,-22.229 0,-12.284 9.4575,-16.2812 14.8196,-19.9859 0.975683,-0.682445 0.487461,-1.94984 -0.389207,-2.63305 -3.90045,-3.41223 -6.43525,-7.89687 -6.43525,-13.2589 0,-8.7743 6.92194,-15.5028 16.6719,-15.5028 9.74922,0 17.2561,6.24102 17.2561,15.5028 0,5.36207 -1.2674,13.9421 -14.5263,17.7443 -1.65737,0.487461 -1.75562,1.16991 -1.17067,1.85235 4.09467,4.77712 8.87255,10.3349 13.2597,15.5013 1.07241,1.2674 1.94984,1.2674 2.14483,-0.292477 0.194223,-1.46238 0.292477,-3.02226 0.292477,-4.67962 0,-4.38715 5.94702,-4.58137 5.94702,0 0,3.89969 -0.487461,7.40941 -1.36489,10.4317 -0.389969,1.36565 -0.389969,2.33981 0.488223,3.3155 3.89893,4.58213 6.62871,7.79937 6.62871,7.79937 1.07241,1.2674 0.975683,3.218 -0.292477,4.29042z"/>
   <path id="_206450288" class="fil0" d="M389.548 178.345c0,4.87461 5.65378,9.45674 6.82521,10.5299 1.2674,1.07241 5.06959,0.0967305 6.62871,-0.487461 6.62947,-2.53556 8.7743,-5.07035 8.7743,-11.9923 0,-6.04528 -4.87461,-9.74922 -11.4058,-9.74922 -6.43448,-0.000761658 -10.8224,6.23874 -10.8224,11.6991zm24.568 42.5081c0.585715,-0.878191 0.389969,-1.36565 -0.389969,-2.33981 -5.55553,-7.0202 -12.089,-15.307 -16.9636,-21.1566 -0.682445,-0.87743 -1.07165,-1.2674 -2.33981,-0.779937 -6.62947,2.14483 -12.674,5.75128 -12.674,15.6962 0,10.6274 7.21442,16.3794 17.9386,16.3794 6.04604,0 11.2124,-2.63229 14.4288,-7.79937zm14.9171 11.5048l-0.194223 0.194984c-1.2674,1.07241 -3.218,0.876668 -4.29042,-0.39073 0,0 -1.75486,-2.33981 -4.87461,-6.2395 -0.389969,-0.487461 -1.07241,-1.07241 -1.75486,-0.0974922 -4.28966,5.65455 -10.8216,8.6768 -18.2318,8.6768 -13.9414,0 -23.9838,-8.28684 -23.9838,-22.229 0,-12.284 9.4575,-16.2812 14.8196,-19.9859 0.975683,-0.682445 0.487461,-1.94984 -0.389207,-2.63305 -3.90045,-3.41223 -6.43525,-7.89687 -6.43525,-13.2589 0,-8.7743 6.92194,-15.5028 16.6719,-15.5028 9.74922,0 17.2561,6.24102 17.2561,15.5028 0,5.36207 -1.2674,13.9421 -14.5263,17.7443 -1.65737,0.487461 -1.75562,1.16991 -1.17067,1.85235 4.09467,4.77712 8.87255,10.3349 13.2597,15.5013 1.07241,1.2674 1.94984,1.2674 2.14483,-0.292477 0.194223,-1.46238 0.292477,-3.02226 0.292477,-4.67962 0,-4.38715 5.94702,-4.58137 5.94702,0 0,3.89969 -0.487461,7.40941 -1.36489,10.4317 -0.389969,1.36565 -0.389969,2.33981 0.488223,3.3155 3.89893,4.58213 6.62871,7.79937 6.62871,7.79937 1.07241,1.2674 0.975683,3.218 -0.292477,4.29042z"/>
   <path id="_206450384" class="fil0" d="M490.061 224.558c-3.99718,-9.74998 -19.11,-46.7003 -19.7924,-48.3576 -1.75486,-4.09391 -1.65737,-4.38791 -3.60645,0.194984 -0.780699,1.85235 -15.4045,37.6327 -19.5967,47.8702 -0.682445,1.65737 -0.194984,2.63229 1.2674,2.63229 1.16914,0 31.8815,0 40.3633,0 1.36489,0 1.94908,-0.87743 1.36489,-2.33981zm14.3321 5.36283l0 0.291715c0,1.65813 -1.36565,3.02302 -3.02302,3.02302l-65.8095 0c-1.65737,0 -3.02226,-1.36489 -3.02226,-3.02302l0 -0.291715c0,-1.65813 1.36489,-3.02302 3.02226,-3.02302 0,0 0.682445,0 1.75486,0 1.46238,0 2.0481,-0.584953 2.63305,-1.94984 0.584191,-1.36489 25.6404,-61.0316 25.6404,-61.0316 0.487461,-1.2674 1.65737,-1.85235 2.92477,-1.85235 1.17067,0 2.34057,0.584953 2.82727,1.85235 0,-0.000761658 25.0563,59.6667 25.6412,60.8366 0.682445,1.75486 1.36489,2.14483 2.63305,2.14483 1.16914,0 1.75486,0 1.75486,0 1.65813,0 3.02226,1.36489 3.02302,3.02302z"/>
   <path id="_206450456" class="fil0" d="M490.061 224.558c-3.99718,-9.74998 -19.11,-46.7003 -19.7924,-48.3576 -1.75486,-4.09391 -1.65737,-4.38791 -3.60645,0.194984 -0.780699,1.85235 -15.4045,37.6327 -19.5967,47.8702 -0.682445,1.65737 -0.194984,2.63229 1.2674,2.63229 1.16914,0 31.8815,0 40.3633,0 1.36489,0 1.94908,-0.87743 1.36489,-2.33981zm14.3321 5.36283l0 0.291715c0,1.65813 -1.36565,3.02302 -3.02302,3.02302l-65.8095 0c-1.65737,0 -3.02226,-1.36489 -3.02226,-3.02302l0 -0.291715c0,-1.65813 1.36489,-3.02302 3.02226,-3.02302 0,0 0.682445,0 1.75486,0 1.46238,0 2.0481,-0.584953 2.63305,-1.94984 0.584191,-1.36489 25.6404,-61.0316 25.6404,-61.0316 0.487461,-1.2674 1.65737,-1.85235 2.92477,-1.85235 1.17067,0 2.34057,0.584953 2.82727,1.85235 0,0 25.0563,59.6667 25.6412,60.8366 0.682445,1.75486 1.36489,2.14483 2.63305,2.14483 1.16914,0 1.75486,0 1.75486,0 1.65813,0 3.02302,1.36489 3.02302,3.02302z"/>
   <path id="_206450552" class="fil0" d="M549.334 229.921l0 0.291715c0,1.65813 -1.36641,3.02302 -3.02378,3.02302l-35.0987 0c-1.65661,0 -2.924,-1.36489 -2.924,-3.02302l0.000761658 -65.1271c0,-1.65661 1.26587,-3.0215 2.92324,-3.0215l33.2471 0c1.65737,0 3.0215,1.36489 3.0215,3.0215l0.000761658 0.194984c0,1.65737 -1.36565,3.02226 -3.02302,3.02226l-28.6627 0c-0.974922,0 -1.26816,0.292477 -1.26816,1.07241l0.000761658 23.0097c0,0.974922 0.194223,1.2674 1.07165,1.2674l25.1545 0c1.65661,0 3.02226,1.36489 3.02226,3.02226l0 0.194984c0,1.65737 -1.36641,3.02226 -3.02226,3.02226l-24.9588 0c-0.974922,0 -1.26816,0.194984 -1.26816,1.07241l0.000761658 24.7638c0,0.87743 0.194223,1.16991 1.07165,1.16991l30.7108 0c1.65737,0 3.02378,1.36489 3.02378,3.02302z"/>
   <path id="_206450624" class="fil0" d="M549.334 229.921l0 0.291715c0,1.65813 -1.36641,3.02302 -3.02378,3.02302l-35.0987 0c-1.65661,0 -2.924,-1.36489 -2.924,-3.02302l0.000761658 -65.1271c0,-1.65661 1.26587,-3.0215 2.92324,-3.0215l33.2471 0c1.65737,0 3.0215,1.36489 3.0215,3.0215l0.000761658 0.194984c0,1.65737 -1.36565,3.02226 -3.02302,3.02226l-28.6627 0c-0.974922,0 -1.26816,0.292477 -1.26816,1.07241l0.000761658 23.0097c0,0.974922 0.194223,1.2674 1.07165,1.2674l25.1545 0c1.65661,0 3.02226,1.36489 3.02226,3.02226l0 0.194984c0,1.65737 -1.36641,3.02226 -3.02226,3.02226l-24.9588 0c-0.974922,0 -1.26816,0.194984 -1.26816,1.07241l0.000761658 24.7638c0,0.87743 0.194223,1.16991 1.07165,1.16991l30.7108 0c1.65737,0 3.02378,1.36489 3.02378,3.02302z"/>
   <path id="_206450720" class="fil0" d="M574.093 193.36c1.17067,1.65737 22.424,35.0979 22.424,35.0979 0.87743,1.36489 0.487461,3.21724 -0.974922,4.19293l-0.194984 0.0967305c-1.36489,0.878191 -3.31473,0.488223 -4.19293,-0.876668 0,0 -20.5708,-32.3689 -21.3515,-33.6363 -0.779937,-1.2674 -1.65737,-1.16991 -2.4373,-0.194984 -1.46162,1.94984 -3.80143,4.87537 -4.58213,5.94778 -1.16914,1.46162 -1.55987,2.92477 -1.55987,5.75204 0.000761658,2.82651 0,20.4734 0,20.4734 0.000761658,1.65813 -1.36413,3.02302 -3.02302,3.02302l-0.291715 0c-1.65737,0 -3.02302,-1.36489 -3.02302,-3.02302l0 -65.1271c0,-1.65661 1.36489,-3.0215 3.02226,-3.0215l0.293238 0c1.65813,0 3.02226,1.36489 3.02226,3.0215 0.000761658,0 0,25.5445 0,27.6893 0.000761658,2.24232 0.488223,2.4373 1.65737,0.87743 1.17067,-1.55987 23.5946,-30.4183 23.5946,-30.4183 1.07318,-1.36489 2.924,-1.55987 4.28889,-0.584953l0.195746 0.194223c1.2674,0.975683 1.55911,2.92553 0.486699,4.19216 0,0 -14.7213,18.9142 -16.4762,21.1573 -1.75562,2.24232 -1.94984,3.41223 -0.87743,5.16709z"/>
   <path id="_206450792" class="fil0" d="M574.093 193.36c1.17067,1.65737 22.424,35.0979 22.424,35.0979 0.87743,1.36489 0.487461,3.21724 -0.974922,4.19293l-0.194984 0.0967305c-1.36489,0.878191 -3.31473,0.488223 -4.19293,-0.876668 0,0 -20.5708,-32.3689 -21.3515,-33.6363 -0.779937,-1.2674 -1.65737,-1.16991 -2.4373,-0.194984 -1.46162,1.94984 -3.80143,4.87537 -4.58213,5.94778 -1.16914,1.46162 -1.55987,2.92477 -1.55987,5.75204 0,2.82651 0,20.4734 0,20.4734 0,1.65813 -1.36413,3.02302 -3.02302,3.02302l-0.291715 0c-1.65737,0 -3.02302,-1.36489 -3.02302,-3.02302l0 -65.1271c0,-1.65661 1.36489,-3.0215 3.02226,-3.0215l0.293238 0c1.65813,0 3.02226,1.36489 3.02226,3.0215 0,0 0,25.5445 0,27.6893 0,2.24232 0.488223,2.4373 1.65737,0.87743 1.17067,-1.55987 23.5946,-30.4183 23.5946,-30.4183 1.07318,-1.36489 2.924,-1.55987 4.28889,-0.584953l0.195746 0.194223c1.2674,0.975683 1.55911,2.92553 0.486699,4.19216 0,0 -14.7213,18.9142 -16.4762,21.1573 -1.75562,2.24232 -1.94984,3.41223 -0.87743,5.16709z"/>
   <path id="_65702080" class="fil0" d="M662.519 197.649c0,-16.9644 -12.7715,-31.0033 -29.6384,-31.0033 -16.8669,-0.000761658 -30.6141,14.0389 -30.6141,31.0033 0.000761658,16.8661 13.7472,31.0033 30.6141,31.0033 16.8669,0 29.6384,-14.1371 29.6384,-31.0033zm6.24026 0c0,20.2784 -15.502,36.8528 -35.8786,36.8528 -20.3759,0 -36.8536,-16.5744 -36.8536,-36.8528 0.000761658,-20.3766 16.4777,-36.7568 36.8536,-36.7568 20.3766,0 35.8779,16.3802 35.8786,36.7568z"/>
   <path id="_65702008" class="fil0" d="M662.519 197.649c0,-16.9644 -12.7715,-31.0033 -29.6384,-31.0033 -16.8669,-0.000761658 -30.6141,14.0389 -30.6141,31.0033 0,16.8661 13.7472,31.0033 30.6141,31.0033 16.8669,0 29.6384,-14.1371 29.6384,-31.0033zm6.24026 0c0,20.2784 -15.502,36.8528 -35.8786,36.8528 -20.3759,0 -36.8536,-16.5744 -36.8536,-36.8528 0,-20.3766 16.4777,-36.7568 36.8536,-36.7568 20.3766,0 35.8786,16.3802 35.8786,36.7568z"/>
   <path id="_65701912" class="fil0" d="M714.283 183.805c0,-10.1392 -8.18934,-15.502 -18.3293,-15.502l-13.3572 0c-0.876668,0 -1.16991,0.292477 -1.16991,1.07241l0.000761658 29.3467c0,0.87743 0.194223,1.16991 1.07165,1.16991l13.4547 0c10.1399,0 18.3285,-5.94702 18.3293,-16.087zm6.2395 0c0,13.5522 -11.0166,22.4247 -24.5688,22.4247l-13.3572 -0.000761658c-0.876668,0 -1.16991,0.195746 -1.16991,1.07318l0.000761658 22.9107c0,1.65813 -1.36565,3.02302 -3.02378,3.02302l-0.292477 0c-1.65584,0 -3.02073,-1.36489 -3.02073,-3.02302l0 -65.1271c0,-1.65661 1.36489,-3.0215 3.02073,-3.0215l17.8426 0c13.5522,0 24.5688,8.18858 24.5688,21.7408z"/>
   <path id="_65701720" class="fil0" d="M714.283 183.805c0,-10.1392 -8.18934,-15.502 -18.3293,-15.502l-13.3572 0c-0.876668,0 -1.16991,0.292477 -1.16991,1.07241l0.000761658 29.3467c0,0.87743 0.194223,1.16991 1.07165,1.16991l13.4547 0c10.1399,0 18.3293,-5.94702 18.3293,-16.087zm6.2395 0c0,13.5522 -11.0166,22.4247 -24.5688,22.4247l-13.3572 -0.000761658c-0.876668,0 -1.16991,0.195746 -1.16991,1.07318l0.000761658 22.9107c0,1.65813 -1.36565,3.02302 -3.02378,3.02302l-0.292477 0c-1.65584,0 -3.02073,-1.36489 -3.02073,-3.02302l0 -65.1271c0,-1.65661 1.36489,-3.0215 3.02073,-3.0215l17.8426 0c13.5522,0 24.5688,8.18858 24.5688,21.7408z"/>
  </g>
 </g>
</svg>
